<svg width="196" height="218" viewBox="0 0 196 218" fill="none" xmlns="http://www.w3.org/2000/svg">
<path d="M1.61992 2.45001C2.28266 2.45001 2.81993 1.91274 2.81993 1.25C2.81993 0.587258 2.28266 0.0499878 1.61992 0.0499878C0.957177 0.0499878 0.419922 0.587258 0.419922 1.25C0.419922 1.91274 0.957177 2.45001 1.61992 2.45001Z" fill="white"/>
<path d="M15.3997 2.45001C16.0624 2.45001 16.5997 1.91274 16.5997 1.25C16.5997 0.587258 16.0624 0.0499878 15.3997 0.0499878C14.737 0.0499878 14.1997 0.587258 14.1997 1.25C14.1997 1.91274 14.737 2.45001 15.3997 2.45001Z" fill="white"/>
<path d="M30.3795 1.25C30.3795 1.91 29.8395 2.45001 29.1795 2.45001C28.5195 2.45001 27.9795 1.91 27.9795 1.25C27.9795 0.59 28.5195 0.0499878 29.1795 0.0499878C29.8395 0.0499878 30.3795 0.59 30.3795 1.25Z" fill="white"/>
<path d="M42.9598 2.45001C43.6225 2.45001 44.1598 1.91274 44.1598 1.25C44.1598 0.587258 43.6225 0.0499878 42.9598 0.0499878C42.297 0.0499878 41.7598 0.587258 41.7598 1.25C41.7598 1.91274 42.297 2.45001 42.9598 2.45001Z" fill="white"/>
<path d="M56.7395 2.45001C57.4023 2.45001 57.9395 1.91274 57.9395 1.25C57.9395 0.587258 57.4023 0.0499878 56.7395 0.0499878C56.0768 0.0499878 55.5396 0.587258 55.5396 1.25C55.5396 1.91274 56.0768 2.45001 56.7395 2.45001Z" fill="white"/>
<path d="M70.5198 2.45001C71.1826 2.45001 71.7198 1.91274 71.7198 1.25C71.7198 0.587258 71.1826 0.0499878 70.5198 0.0499878C69.8571 0.0499878 69.3198 0.587258 69.3198 1.25C69.3198 1.91274 69.8571 2.45001 70.5198 2.45001Z" fill="white"/>
<path d="M84.3099 2.45001C84.9726 2.45001 85.5099 1.91274 85.5099 1.25C85.5099 0.587258 84.9726 0.0499878 84.3099 0.0499878C83.6471 0.0499878 83.1099 0.587258 83.1099 1.25C83.1099 1.91274 83.6471 2.45001 84.3099 2.45001Z" fill="white"/>
<path d="M98.0896 2.45001C98.7524 2.45001 99.2896 1.91274 99.2896 1.25C99.2896 0.587258 98.7524 0.0499878 98.0896 0.0499878C97.4269 0.0499878 96.8896 0.587258 96.8896 1.25C96.8896 1.91274 97.4269 2.45001 98.0896 2.45001Z" fill="white"/>
<path d="M111.87 2.45001C112.533 2.45001 113.07 1.91274 113.07 1.25C113.07 0.587258 112.533 0.0499878 111.87 0.0499878C111.207 0.0499878 110.67 0.587258 110.67 1.25C110.67 1.91274 111.207 2.45001 111.87 2.45001Z" fill="white"/>
<path d="M125.65 2.45001C126.312 2.45001 126.85 1.91274 126.85 1.25C126.85 0.587258 126.312 0.0499878 125.65 0.0499878C124.987 0.0499878 124.45 0.587258 124.45 1.25C124.45 1.91274 124.987 2.45001 125.65 2.45001Z" fill="white"/>
<path d="M139.429 2.45001C140.092 2.45001 140.629 1.91274 140.629 1.25C140.629 0.587258 140.092 0.0499878 139.429 0.0499878C138.767 0.0499878 138.229 0.587258 138.229 1.25C138.229 1.91274 138.767 2.45001 139.429 2.45001Z" fill="white"/>
<path d="M153.21 2.45001C153.872 2.45001 154.41 1.91274 154.41 1.25C154.41 0.587258 153.872 0.0499878 153.21 0.0499878C152.547 0.0499878 152.01 0.587258 152.01 1.25C152.01 1.91274 152.547 2.45001 153.21 2.45001Z" fill="white"/>
<path d="M168.19 1.25C168.19 1.91 167.65 2.45001 166.99 2.45001C166.33 2.45001 165.79 1.91 165.79 1.25C165.79 0.59 166.33 0.0499878 166.99 0.0499878C167.66 0.0499878 168.19 0.59 168.19 1.25Z" fill="white"/>
<path d="M180.78 2.45001C181.442 2.45001 181.98 1.91274 181.98 1.25C181.98 0.587258 181.442 0.0499878 180.78 0.0499878C180.117 0.0499878 179.58 0.587258 179.58 1.25C179.58 1.91274 180.117 2.45001 180.78 2.45001Z" fill="white"/>
<path d="M194.56 2.45001C195.223 2.45001 195.76 1.91274 195.76 1.25C195.76 0.587258 195.223 0.0499878 194.56 0.0499878C193.897 0.0499878 193.36 0.587258 193.36 1.25C193.36 1.91274 193.897 2.45001 194.56 2.45001Z" fill="white"/>
<path d="M1.61992 15.93C2.28266 15.93 2.81993 15.3928 2.81993 14.73C2.81993 14.0673 2.28266 13.53 1.61992 13.53C0.957177 13.53 0.419922 14.0673 0.419922 14.73C0.419922 15.3928 0.957177 15.93 1.61992 15.93Z" fill="white"/>
<path d="M15.3997 15.93C16.0624 15.93 16.5997 15.3928 16.5997 14.73C16.5997 14.0673 16.0624 13.53 15.3997 13.53C14.737 13.53 14.1997 14.0673 14.1997 14.73C14.1997 15.3928 14.737 15.93 15.3997 15.93Z" fill="white"/>
<path d="M30.3795 14.73C30.3795 15.39 29.8395 15.93 29.1795 15.93C28.5195 15.93 27.9795 15.39 27.9795 14.73C27.9795 14.07 28.5195 13.53 29.1795 13.53C29.8395 13.54 30.3795 14.07 30.3795 14.73Z" fill="white"/>
<path d="M42.9598 15.93C43.6225 15.93 44.1598 15.3928 44.1598 14.73C44.1598 14.0673 43.6225 13.53 42.9598 13.53C42.297 13.53 41.7598 14.0673 41.7598 14.73C41.7598 15.3928 42.297 15.93 42.9598 15.93Z" fill="white"/>
<path d="M56.7395 15.93C57.4023 15.93 57.9395 15.3928 57.9395 14.73C57.9395 14.0673 57.4023 13.53 56.7395 13.53C56.0768 13.53 55.5396 14.0673 55.5396 14.73C55.5396 15.3928 56.0768 15.93 56.7395 15.93Z" fill="white"/>
<path d="M70.5198 15.93C71.1826 15.93 71.7198 15.3928 71.7198 14.73C71.7198 14.0673 71.1826 13.53 70.5198 13.53C69.8571 13.53 69.3198 14.0673 69.3198 14.73C69.3198 15.3928 69.8571 15.93 70.5198 15.93Z" fill="white"/>
<path d="M84.3099 15.93C84.9726 15.93 85.5099 15.3928 85.5099 14.73C85.5099 14.0673 84.9726 13.53 84.3099 13.53C83.6471 13.53 83.1099 14.0673 83.1099 14.73C83.1099 15.3928 83.6471 15.93 84.3099 15.93Z" fill="white"/>
<path d="M98.0896 15.93C98.7524 15.93 99.2896 15.3928 99.2896 14.73C99.2896 14.0673 98.7524 13.53 98.0896 13.53C97.4269 13.53 96.8896 14.0673 96.8896 14.73C96.8896 15.3928 97.4269 15.93 98.0896 15.93Z" fill="white"/>
<path d="M111.87 15.93C112.533 15.93 113.07 15.3928 113.07 14.73C113.07 14.0673 112.533 13.53 111.87 13.53C111.207 13.53 110.67 14.0673 110.67 14.73C110.67 15.3928 111.207 15.93 111.87 15.93Z" fill="white"/>
<path d="M125.65 15.93C126.312 15.93 126.85 15.3928 126.85 14.73C126.85 14.0673 126.312 13.53 125.65 13.53C124.987 13.53 124.45 14.0673 124.45 14.73C124.45 15.3928 124.987 15.93 125.65 15.93Z" fill="white"/>
<path d="M139.429 15.93C140.092 15.93 140.629 15.3928 140.629 14.73C140.629 14.0673 140.092 13.53 139.429 13.53C138.767 13.53 138.229 14.0673 138.229 14.73C138.229 15.3928 138.767 15.93 139.429 15.93Z" fill="white"/>
<path d="M153.21 15.93C153.872 15.93 154.41 15.3928 154.41 14.73C154.41 14.0673 153.872 13.53 153.21 13.53C152.547 13.53 152.01 14.0673 152.01 14.73C152.01 15.3928 152.547 15.93 153.21 15.93Z" fill="white"/>
<path d="M168.19 14.73C168.19 15.39 167.65 15.93 166.99 15.93C166.33 15.93 165.79 15.39 165.79 14.73C165.79 14.07 166.33 13.53 166.99 13.53C167.66 13.54 168.19 14.07 168.19 14.73Z" fill="white"/>
<path d="M180.78 15.93C181.442 15.93 181.98 15.3928 181.98 14.73C181.98 14.0673 181.442 13.53 180.78 13.53C180.117 13.53 179.58 14.0673 179.58 14.73C179.58 15.3928 180.117 15.93 180.78 15.93Z" fill="white"/>
<path d="M194.56 15.93C195.223 15.93 195.76 15.3928 195.76 14.73C195.76 14.0673 195.223 13.53 194.56 13.53C193.897 13.53 193.36 14.0673 193.36 14.73C193.36 15.3928 193.897 15.93 194.56 15.93Z" fill="white"/>
<path d="M1.61992 29.42C2.28266 29.42 2.81993 28.8827 2.81993 28.22C2.81993 27.5573 2.28266 27.02 1.61992 27.02C0.957177 27.02 0.419922 27.5573 0.419922 28.22C0.419922 28.8827 0.957177 29.42 1.61992 29.42Z" fill="white"/>
<path d="M15.3997 29.42C16.0624 29.42 16.5997 28.8827 16.5997 28.22C16.5997 27.5573 16.0624 27.02 15.3997 27.02C14.737 27.02 14.1997 27.5573 14.1997 28.22C14.1997 28.8827 14.737 29.42 15.3997 29.42Z" fill="white"/>
<path d="M30.3795 28.22C30.3795 28.88 29.8395 29.42 29.1795 29.42C28.5195 29.42 27.9795 28.88 27.9795 28.22C27.9795 27.56 28.5195 27.02 29.1795 27.02C29.8395 27.02 30.3795 27.55 30.3795 28.22Z" fill="white"/>
<path d="M42.9598 29.42C43.6225 29.42 44.1598 28.8827 44.1598 28.22C44.1598 27.5573 43.6225 27.02 42.9598 27.02C42.297 27.02 41.7598 27.5573 41.7598 28.22C41.7598 28.8827 42.297 29.42 42.9598 29.42Z" fill="white"/>
<path d="M56.7395 29.42C57.4023 29.42 57.9395 28.8827 57.9395 28.22C57.9395 27.5573 57.4023 27.02 56.7395 27.02C56.0768 27.02 55.5396 27.5573 55.5396 28.22C55.5396 28.8827 56.0768 29.42 56.7395 29.42Z" fill="white"/>
<path d="M70.5198 29.42C71.1826 29.42 71.7198 28.8827 71.7198 28.22C71.7198 27.5573 71.1826 27.02 70.5198 27.02C69.8571 27.02 69.3198 27.5573 69.3198 28.22C69.3198 28.8827 69.8571 29.42 70.5198 29.42Z" fill="white"/>
<path d="M84.3099 29.42C84.9726 29.42 85.5099 28.8827 85.5099 28.22C85.5099 27.5573 84.9726 27.02 84.3099 27.02C83.6471 27.02 83.1099 27.5573 83.1099 28.22C83.1099 28.8827 83.6471 29.42 84.3099 29.42Z" fill="white"/>
<path d="M98.0896 29.42C98.7524 29.42 99.2896 28.8827 99.2896 28.22C99.2896 27.5573 98.7524 27.02 98.0896 27.02C97.4269 27.02 96.8896 27.5573 96.8896 28.22C96.8896 28.8827 97.4269 29.42 98.0896 29.42Z" fill="white"/>
<path d="M111.87 29.42C112.533 29.42 113.07 28.8827 113.07 28.22C113.07 27.5573 112.533 27.02 111.87 27.02C111.207 27.02 110.67 27.5573 110.67 28.22C110.67 28.8827 111.207 29.42 111.87 29.42Z" fill="white"/>
<path d="M125.65 29.42C126.312 29.42 126.85 28.8827 126.85 28.22C126.85 27.5573 126.312 27.02 125.65 27.02C124.987 27.02 124.45 27.5573 124.45 28.22C124.45 28.8827 124.987 29.42 125.65 29.42Z" fill="white"/>
<path d="M139.429 29.42C140.092 29.42 140.629 28.8827 140.629 28.22C140.629 27.5573 140.092 27.02 139.429 27.02C138.767 27.02 138.229 27.5573 138.229 28.22C138.229 28.8827 138.767 29.42 139.429 29.42Z" fill="white"/>
<path d="M153.21 29.42C153.872 29.42 154.41 28.8827 154.41 28.22C154.41 27.5573 153.872 27.02 153.21 27.02C152.547 27.02 152.01 27.5573 152.01 28.22C152.01 28.8827 152.547 29.42 153.21 29.42Z" fill="white"/>
<path d="M168.19 28.22C168.19 28.88 167.65 29.42 166.99 29.42C166.33 29.42 165.79 28.88 165.79 28.22C165.79 27.56 166.33 27.02 166.99 27.02C167.66 27.02 168.19 27.55 168.19 28.22Z" fill="white"/>
<path d="M180.78 29.42C181.442 29.42 181.98 28.8827 181.98 28.22C181.98 27.5573 181.442 27.02 180.78 27.02C180.117 27.02 179.58 27.5573 179.58 28.22C179.58 28.8827 180.117 29.42 180.78 29.42Z" fill="white"/>
<path d="M194.56 29.42C195.223 29.42 195.76 28.8827 195.76 28.22C195.76 27.5573 195.223 27.02 194.56 27.02C193.897 27.02 193.36 27.5573 193.36 28.22C193.36 28.8827 193.897 29.42 194.56 29.42Z" fill="white"/>
<path d="M1.61992 42.9C2.28266 42.9 2.81993 42.3628 2.81993 41.7C2.81993 41.0373 2.28266 40.5 1.61992 40.5C0.957177 40.5 0.419922 41.0373 0.419922 41.7C0.419922 42.3628 0.957177 42.9 1.61992 42.9Z" fill="white"/>
<path d="M15.3997 42.9C16.0624 42.9 16.5997 42.3628 16.5997 41.7C16.5997 41.0373 16.0624 40.5 15.3997 40.5C14.737 40.5 14.1997 41.0373 14.1997 41.7C14.1997 42.3628 14.737 42.9 15.3997 42.9Z" fill="white"/>
<path d="M30.3795 41.7C30.3795 42.36 29.8395 42.9 29.1795 42.9C28.5195 42.9 27.9795 42.36 27.9795 41.7C27.9795 41.04 28.5195 40.5 29.1795 40.5C29.8395 40.5 30.3795 41.04 30.3795 41.7Z" fill="white"/>
<path d="M42.9598 42.9C43.6225 42.9 44.1598 42.3628 44.1598 41.7C44.1598 41.0373 43.6225 40.5 42.9598 40.5C42.297 40.5 41.7598 41.0373 41.7598 41.7C41.7598 42.3628 42.297 42.9 42.9598 42.9Z" fill="white"/>
<path d="M56.7395 42.9C57.4023 42.9 57.9395 42.3628 57.9395 41.7C57.9395 41.0373 57.4023 40.5 56.7395 40.5C56.0768 40.5 55.5396 41.0373 55.5396 41.7C55.5396 42.3628 56.0768 42.9 56.7395 42.9Z" fill="white"/>
<path d="M70.5198 42.9C71.1826 42.9 71.7198 42.3628 71.7198 41.7C71.7198 41.0373 71.1826 40.5 70.5198 40.5C69.8571 40.5 69.3198 41.0373 69.3198 41.7C69.3198 42.3628 69.8571 42.9 70.5198 42.9Z" fill="white"/>
<path d="M84.3099 42.9C84.9726 42.9 85.5099 42.3628 85.5099 41.7C85.5099 41.0373 84.9726 40.5 84.3099 40.5C83.6471 40.5 83.1099 41.0373 83.1099 41.7C83.1099 42.3628 83.6471 42.9 84.3099 42.9Z" fill="white"/>
<path d="M98.0896 42.9C98.7524 42.9 99.2896 42.3628 99.2896 41.7C99.2896 41.0373 98.7524 40.5 98.0896 40.5C97.4269 40.5 96.8896 41.0373 96.8896 41.7C96.8896 42.3628 97.4269 42.9 98.0896 42.9Z" fill="white"/>
<path d="M111.87 42.9C112.533 42.9 113.07 42.3628 113.07 41.7C113.07 41.0373 112.533 40.5 111.87 40.5C111.207 40.5 110.67 41.0373 110.67 41.7C110.67 42.3628 111.207 42.9 111.87 42.9Z" fill="white"/>
<path d="M125.65 42.9C126.312 42.9 126.85 42.3628 126.85 41.7C126.85 41.0373 126.312 40.5 125.65 40.5C124.987 40.5 124.45 41.0373 124.45 41.7C124.45 42.3628 124.987 42.9 125.65 42.9Z" fill="white"/>
<path d="M139.429 42.9C140.092 42.9 140.629 42.3628 140.629 41.7C140.629 41.0373 140.092 40.5 139.429 40.5C138.767 40.5 138.229 41.0373 138.229 41.7C138.229 42.3628 138.767 42.9 139.429 42.9Z" fill="white"/>
<path d="M153.21 42.9C153.872 42.9 154.41 42.3628 154.41 41.7C154.41 41.0373 153.872 40.5 153.21 40.5C152.547 40.5 152.01 41.0373 152.01 41.7C152.01 42.3628 152.547 42.9 153.21 42.9Z" fill="white"/>
<path d="M168.19 41.7C168.19 42.36 167.65 42.9 166.99 42.9C166.33 42.9 165.79 42.36 165.79 41.7C165.79 41.04 166.33 40.5 166.99 40.5C167.66 40.5 168.19 41.04 168.19 41.7Z" fill="white"/>
<path d="M180.78 42.9C181.442 42.9 181.98 42.3628 181.98 41.7C181.98 41.0373 181.442 40.5 180.78 40.5C180.117 40.5 179.58 41.0373 179.58 41.7C179.58 42.3628 180.117 42.9 180.78 42.9Z" fill="white"/>
<path d="M194.56 42.9C195.223 42.9 195.76 42.3628 195.76 41.7C195.76 41.0373 195.223 40.5 194.56 40.5C193.897 40.5 193.36 41.0373 193.36 41.7C193.36 42.3628 193.897 42.9 194.56 42.9Z" fill="white"/>
<path d="M1.61992 56.38C2.28266 56.38 2.81993 55.8427 2.81993 55.18C2.81993 54.5173 2.28266 53.98 1.61992 53.98C0.957177 53.98 0.419922 54.5173 0.419922 55.18C0.419922 55.8427 0.957177 56.38 1.61992 56.38Z" fill="white"/>
<path d="M15.3997 56.38C16.0624 56.38 16.5997 55.8427 16.5997 55.18C16.5997 54.5173 16.0624 53.98 15.3997 53.98C14.737 53.98 14.1997 54.5173 14.1997 55.18C14.1997 55.8427 14.737 56.38 15.3997 56.38Z" fill="white"/>
<path d="M30.3795 55.18C30.3795 55.84 29.8395 56.38 29.1795 56.38C28.5195 56.38 27.9795 55.84 27.9795 55.18C27.9795 54.52 28.5195 53.98 29.1795 53.98C29.8395 53.98 30.3795 54.52 30.3795 55.18Z" fill="white"/>
<path d="M42.9598 56.38C43.6225 56.38 44.1598 55.8427 44.1598 55.18C44.1598 54.5173 43.6225 53.98 42.9598 53.98C42.297 53.98 41.7598 54.5173 41.7598 55.18C41.7598 55.8427 42.297 56.38 42.9598 56.38Z" fill="white"/>
<path d="M56.7395 56.38C57.4023 56.38 57.9395 55.8427 57.9395 55.18C57.9395 54.5173 57.4023 53.98 56.7395 53.98C56.0768 53.98 55.5396 54.5173 55.5396 55.18C55.5396 55.8427 56.0768 56.38 56.7395 56.38Z" fill="white"/>
<path d="M70.5198 56.38C71.1826 56.38 71.7198 55.8427 71.7198 55.18C71.7198 54.5173 71.1826 53.98 70.5198 53.98C69.8571 53.98 69.3198 54.5173 69.3198 55.18C69.3198 55.8427 69.8571 56.38 70.5198 56.38Z" fill="white"/>
<path d="M84.3099 56.38C84.9726 56.38 85.5099 55.8427 85.5099 55.18C85.5099 54.5173 84.9726 53.98 84.3099 53.98C83.6471 53.98 83.1099 54.5173 83.1099 55.18C83.1099 55.8427 83.6471 56.38 84.3099 56.38Z" fill="white"/>
<path d="M98.0896 56.38C98.7524 56.38 99.2896 55.8427 99.2896 55.18C99.2896 54.5173 98.7524 53.98 98.0896 53.98C97.4269 53.98 96.8896 54.5173 96.8896 55.18C96.8896 55.8427 97.4269 56.38 98.0896 56.38Z" fill="white"/>
<path d="M111.87 56.38C112.533 56.38 113.07 55.8427 113.07 55.18C113.07 54.5173 112.533 53.98 111.87 53.98C111.207 53.98 110.67 54.5173 110.67 55.18C110.67 55.8427 111.207 56.38 111.87 56.38Z" fill="white"/>
<path d="M125.65 56.38C126.312 56.38 126.85 55.8427 126.85 55.18C126.85 54.5173 126.312 53.98 125.65 53.98C124.987 53.98 124.45 54.5173 124.45 55.18C124.45 55.8427 124.987 56.38 125.65 56.38Z" fill="white"/>
<path d="M139.429 56.38C140.092 56.38 140.629 55.8427 140.629 55.18C140.629 54.5173 140.092 53.98 139.429 53.98C138.767 53.98 138.229 54.5173 138.229 55.18C138.229 55.8427 138.767 56.38 139.429 56.38Z" fill="white"/>
<path d="M153.21 56.38C153.872 56.38 154.41 55.8427 154.41 55.18C154.41 54.5173 153.872 53.98 153.21 53.98C152.547 53.98 152.01 54.5173 152.01 55.18C152.01 55.8427 152.547 56.38 153.21 56.38Z" fill="white"/>
<path d="M168.19 55.18C168.19 55.84 167.65 56.38 166.99 56.38C166.33 56.38 165.79 55.84 165.79 55.18C165.79 54.52 166.33 53.98 166.99 53.98C167.66 53.98 168.19 54.52 168.19 55.18Z" fill="white"/>
<path d="M180.78 56.38C181.442 56.38 181.98 55.8427 181.98 55.18C181.98 54.5173 181.442 53.98 180.78 53.98C180.117 53.98 179.58 54.5173 179.58 55.18C179.58 55.8427 180.117 56.38 180.78 56.38Z" fill="white"/>
<path d="M194.56 56.38C195.223 56.38 195.76 55.8427 195.76 55.18C195.76 54.5173 195.223 53.98 194.56 53.98C193.897 53.98 193.36 54.5173 193.36 55.18C193.36 55.8427 193.897 56.38 194.56 56.38Z" fill="white"/>
<path d="M1.61992 69.86C2.28266 69.86 2.81993 69.3227 2.81993 68.66C2.81993 67.9972 2.28266 67.46 1.61992 67.46C0.957177 67.46 0.419922 67.9972 0.419922 68.66C0.419922 69.3227 0.957177 69.86 1.61992 69.86Z" fill="white"/>
<path d="M15.3997 69.86C16.0624 69.86 16.5997 69.3227 16.5997 68.66C16.5997 67.9972 16.0624 67.46 15.3997 67.46C14.737 67.46 14.1997 67.9972 14.1997 68.66C14.1997 69.3227 14.737 69.86 15.3997 69.86Z" fill="white"/>
<path d="M30.3795 68.66C30.3795 69.32 29.8395 69.86 29.1795 69.86C28.5195 69.86 27.9795 69.32 27.9795 68.66C27.9795 68 28.5195 67.46 29.1795 67.46C29.8395 67.46 30.3795 68 30.3795 68.66Z" fill="white"/>
<path d="M42.9598 69.86C43.6225 69.86 44.1598 69.3227 44.1598 68.66C44.1598 67.9972 43.6225 67.46 42.9598 67.46C42.297 67.46 41.7598 67.9972 41.7598 68.66C41.7598 69.3227 42.297 69.86 42.9598 69.86Z" fill="white"/>
<path d="M56.7395 69.86C57.4023 69.86 57.9395 69.3227 57.9395 68.66C57.9395 67.9972 57.4023 67.46 56.7395 67.46C56.0768 67.46 55.5396 67.9972 55.5396 68.66C55.5396 69.3227 56.0768 69.86 56.7395 69.86Z" fill="white"/>
<path d="M70.5198 69.86C71.1826 69.86 71.7198 69.3227 71.7198 68.66C71.7198 67.9972 71.1826 67.46 70.5198 67.46C69.8571 67.46 69.3198 67.9972 69.3198 68.66C69.3198 69.3227 69.8571 69.86 70.5198 69.86Z" fill="white"/>
<path d="M84.3099 69.86C84.9726 69.86 85.5099 69.3227 85.5099 68.66C85.5099 67.9972 84.9726 67.46 84.3099 67.46C83.6471 67.46 83.1099 67.9972 83.1099 68.66C83.1099 69.3227 83.6471 69.86 84.3099 69.86Z" fill="white"/>
<path d="M98.0896 69.86C98.7524 69.86 99.2896 69.3227 99.2896 68.66C99.2896 67.9972 98.7524 67.46 98.0896 67.46C97.4269 67.46 96.8896 67.9972 96.8896 68.66C96.8896 69.3227 97.4269 69.86 98.0896 69.86Z" fill="white"/>
<path d="M111.87 69.86C112.533 69.86 113.07 69.3227 113.07 68.66C113.07 67.9972 112.533 67.46 111.87 67.46C111.207 67.46 110.67 67.9972 110.67 68.66C110.67 69.3227 111.207 69.86 111.87 69.86Z" fill="white"/>
<path d="M125.65 69.86C126.312 69.86 126.85 69.3227 126.85 68.66C126.85 67.9972 126.312 67.46 125.65 67.46C124.987 67.46 124.45 67.9972 124.45 68.66C124.45 69.3227 124.987 69.86 125.65 69.86Z" fill="white"/>
<path d="M139.429 69.86C140.092 69.86 140.629 69.3227 140.629 68.66C140.629 67.9972 140.092 67.46 139.429 67.46C138.767 67.46 138.229 67.9972 138.229 68.66C138.229 69.3227 138.767 69.86 139.429 69.86Z" fill="white"/>
<path d="M153.21 69.86C153.872 69.86 154.41 69.3227 154.41 68.66C154.41 67.9972 153.872 67.46 153.21 67.46C152.547 67.46 152.01 67.9972 152.01 68.66C152.01 69.3227 152.547 69.86 153.21 69.86Z" fill="white"/>
<path d="M168.19 68.66C168.19 69.32 167.65 69.86 166.99 69.86C166.33 69.86 165.79 69.32 165.79 68.66C165.79 68 166.33 67.46 166.99 67.46C167.66 67.46 168.19 68 168.19 68.66Z" fill="white"/>
<path d="M180.78 69.86C181.442 69.86 181.98 69.3227 181.98 68.66C181.98 67.9972 181.442 67.46 180.78 67.46C180.117 67.46 179.58 67.9972 179.58 68.66C179.58 69.3227 180.117 69.86 180.78 69.86Z" fill="white"/>
<path d="M194.56 69.86C195.223 69.86 195.76 69.3227 195.76 68.66C195.76 67.9972 195.223 67.46 194.56 67.46C193.897 67.46 193.36 67.9972 193.36 68.66C193.36 69.3227 193.897 69.86 194.56 69.86Z" fill="white"/>
<path d="M1.61992 83.34C2.28266 83.34 2.81993 82.8028 2.81993 82.14C2.81993 81.4773 2.28266 80.94 1.61992 80.94C0.957177 80.94 0.419922 81.4773 0.419922 82.14C0.419922 82.8028 0.957177 83.34 1.61992 83.34Z" fill="white"/>
<path d="M15.3997 83.34C16.0624 83.34 16.5997 82.8028 16.5997 82.14C16.5997 81.4773 16.0624 80.94 15.3997 80.94C14.737 80.94 14.1997 81.4773 14.1997 82.14C14.1997 82.8028 14.737 83.34 15.3997 83.34Z" fill="white"/>
<path d="M30.3795 82.14C30.3795 82.8 29.8395 83.34 29.1795 83.34C28.5195 83.34 27.9795 82.8 27.9795 82.14C27.9795 81.48 28.5195 80.94 29.1795 80.94C29.8395 80.95 30.3795 81.48 30.3795 82.14Z" fill="white"/>
<path d="M42.9598 83.34C43.6225 83.34 44.1598 82.8028 44.1598 82.14C44.1598 81.4773 43.6225 80.94 42.9598 80.94C42.297 80.94 41.7598 81.4773 41.7598 82.14C41.7598 82.8028 42.297 83.34 42.9598 83.34Z" fill="white"/>
<path d="M56.7395 83.34C57.4023 83.34 57.9395 82.8028 57.9395 82.14C57.9395 81.4773 57.4023 80.94 56.7395 80.94C56.0768 80.94 55.5396 81.4773 55.5396 82.14C55.5396 82.8028 56.0768 83.34 56.7395 83.34Z" fill="white"/>
<path d="M70.5198 83.34C71.1826 83.34 71.7198 82.8028 71.7198 82.14C71.7198 81.4773 71.1826 80.94 70.5198 80.94C69.8571 80.94 69.3198 81.4773 69.3198 82.14C69.3198 82.8028 69.8571 83.34 70.5198 83.34Z" fill="white"/>
<path d="M84.3099 83.34C84.9726 83.34 85.5099 82.8028 85.5099 82.14C85.5099 81.4773 84.9726 80.94 84.3099 80.94C83.6471 80.94 83.1099 81.4773 83.1099 82.14C83.1099 82.8028 83.6471 83.34 84.3099 83.34Z" fill="white"/>
<path d="M98.0896 83.34C98.7524 83.34 99.2896 82.8028 99.2896 82.14C99.2896 81.4773 98.7524 80.94 98.0896 80.94C97.4269 80.94 96.8896 81.4773 96.8896 82.14C96.8896 82.8028 97.4269 83.34 98.0896 83.34Z" fill="white"/>
<path d="M111.87 83.34C112.533 83.34 113.07 82.8028 113.07 82.14C113.07 81.4773 112.533 80.94 111.87 80.94C111.207 80.94 110.67 81.4773 110.67 82.14C110.67 82.8028 111.207 83.34 111.87 83.34Z" fill="white"/>
<path d="M125.65 83.34C126.312 83.34 126.85 82.8028 126.85 82.14C126.85 81.4773 126.312 80.94 125.65 80.94C124.987 80.94 124.45 81.4773 124.45 82.14C124.45 82.8028 124.987 83.34 125.65 83.34Z" fill="white"/>
<path d="M139.429 83.34C140.092 83.34 140.629 82.8028 140.629 82.14C140.629 81.4773 140.092 80.94 139.429 80.94C138.767 80.94 138.229 81.4773 138.229 82.14C138.229 82.8028 138.767 83.34 139.429 83.34Z" fill="white"/>
<path d="M153.21 83.34C153.872 83.34 154.41 82.8028 154.41 82.14C154.41 81.4773 153.872 80.94 153.21 80.94C152.547 80.94 152.01 81.4773 152.01 82.14C152.01 82.8028 152.547 83.34 153.21 83.34Z" fill="white"/>
<path d="M168.19 82.14C168.19 82.8 167.65 83.34 166.99 83.34C166.33 83.34 165.79 82.8 165.79 82.14C165.79 81.48 166.33 80.94 166.99 80.94C167.66 80.95 168.19 81.48 168.19 82.14Z" fill="white"/>
<path d="M180.78 83.34C181.442 83.34 181.98 82.8028 181.98 82.14C181.98 81.4773 181.442 80.94 180.78 80.94C180.117 80.94 179.58 81.4773 179.58 82.14C179.58 82.8028 180.117 83.34 180.78 83.34Z" fill="white"/>
<path d="M194.56 83.34C195.223 83.34 195.76 82.8028 195.76 82.14C195.76 81.4773 195.223 80.94 194.56 80.94C193.897 80.94 193.36 81.4773 193.36 82.14C193.36 82.8028 193.897 83.34 194.56 83.34Z" fill="white"/>
<path d="M2.80966 95.63C2.80966 96.29 2.26967 96.83 1.60966 96.83C0.949665 96.83 0.409668 96.29 0.409668 95.63C0.409668 94.97 0.949665 94.43 1.60966 94.43C2.27966 94.43 2.80966 94.96 2.80966 95.63Z" fill="white"/>
<path d="M16.5997 95.63C16.5997 96.29 16.0597 96.83 15.3997 96.83C14.7397 96.83 14.1997 96.29 14.1997 95.63C14.1997 94.97 14.7397 94.43 15.3997 94.43C16.0597 94.43 16.5997 94.96 16.5997 95.63Z" fill="white"/>
<path d="M30.3795 95.63C30.3795 96.29 29.8395 96.83 29.1795 96.83C28.5195 96.83 27.9795 96.29 27.9795 95.63C27.9795 94.97 28.5195 94.43 29.1795 94.43C29.8395 94.43 30.3795 94.96 30.3795 95.63Z" fill="white"/>
<path d="M44.1598 95.63C44.1598 96.29 43.6198 96.83 42.9598 96.83C42.2998 96.83 41.7598 96.29 41.7598 95.63C41.7598 94.97 42.2998 94.43 42.9598 94.43C43.6198 94.43 44.1598 94.96 44.1598 95.63Z" fill="white"/>
<path d="M57.9395 95.63C57.9395 96.29 57.3995 96.83 56.7395 96.83C56.0795 96.83 55.5396 96.29 55.5396 95.63C55.5396 94.97 56.0795 94.43 56.7395 94.43C57.3995 94.43 57.9395 94.96 57.9395 95.63Z" fill="white"/>
<path d="M71.7198 95.63C71.7198 96.29 71.1798 96.83 70.5198 96.83C69.8598 96.83 69.3198 96.29 69.3198 95.63C69.3198 94.97 69.8598 94.43 70.5198 94.43C71.1898 94.43 71.7198 94.96 71.7198 95.63Z" fill="white"/>
<path d="M85.4996 95.63C85.4996 96.29 84.9596 96.83 84.2996 96.83C83.6396 96.83 83.0996 96.29 83.0996 95.63C83.0996 94.97 83.6396 94.43 84.2996 94.43C84.9696 94.43 85.4996 94.96 85.4996 95.63Z" fill="white"/>
<path d="M99.2896 95.63C99.2896 96.29 98.7496 96.83 98.0896 96.83C97.4296 96.83 96.8896 96.29 96.8896 95.63C96.8896 94.97 97.4296 94.43 98.0896 94.43C98.7496 94.43 99.2896 94.96 99.2896 95.63Z" fill="white"/>
<path d="M113.07 95.63C113.07 96.29 112.53 96.83 111.87 96.83C111.21 96.83 110.67 96.29 110.67 95.63C110.67 94.97 111.21 94.43 111.87 94.43C112.53 94.43 113.07 94.96 113.07 95.63Z" fill="white"/>
<path d="M126.85 95.63C126.85 96.29 126.31 96.83 125.65 96.83C124.99 96.83 124.45 96.29 124.45 95.63C124.45 94.97 124.99 94.43 125.65 94.43C126.31 94.43 126.85 94.96 126.85 95.63Z" fill="white"/>
<path d="M140.629 95.63C140.629 96.29 140.089 96.83 139.429 96.83C138.769 96.83 138.229 96.29 138.229 95.63C138.229 94.97 138.769 94.43 139.429 94.43C140.089 94.43 140.629 94.96 140.629 95.63Z" fill="white"/>
<path d="M154.41 95.63C154.41 96.29 153.87 96.83 153.21 96.83C152.55 96.83 152.01 96.29 152.01 95.63C152.01 94.97 152.55 94.43 153.21 94.43C153.88 94.43 154.41 94.96 154.41 95.63Z" fill="white"/>
<path d="M168.19 95.63C168.19 96.29 167.65 96.83 166.99 96.83C166.33 96.83 165.79 96.29 165.79 95.63C165.79 94.97 166.33 94.43 166.99 94.43C167.66 94.43 168.19 94.96 168.19 95.63Z" fill="white"/>
<path d="M181.98 95.63C181.98 96.29 181.44 96.83 180.78 96.83C180.12 96.83 179.58 96.29 179.58 95.63C179.58 94.97 180.12 94.43 180.78 94.43C181.44 94.43 181.98 94.96 181.98 95.63Z" fill="white"/>
<path d="M195.76 95.63C195.76 96.29 195.22 96.83 194.56 96.83C193.9 96.83 193.36 96.29 193.36 95.63C193.36 94.97 193.9 94.43 194.56 94.43C195.22 94.43 195.76 94.96 195.76 95.63Z" fill="white"/>
<path d="M1.61992 110.31C2.28266 110.31 2.81993 109.773 2.81993 109.11C2.81993 108.447 2.28266 107.91 1.61992 107.91C0.957177 107.91 0.419922 108.447 0.419922 109.11C0.419922 109.773 0.957177 110.31 1.61992 110.31Z" fill="white"/>
<path d="M15.3997 110.31C16.0624 110.31 16.5997 109.773 16.5997 109.11C16.5997 108.447 16.0624 107.91 15.3997 107.91C14.737 107.91 14.1997 108.447 14.1997 109.11C14.1997 109.773 14.737 110.31 15.3997 110.31Z" fill="white"/>
<path d="M30.3795 109.11C30.3795 109.77 29.8395 110.31 29.1795 110.31C28.5195 110.31 27.9795 109.77 27.9795 109.11C27.9795 108.45 28.5195 107.91 29.1795 107.91C29.8395 107.91 30.3795 108.45 30.3795 109.11Z" fill="white"/>
<path d="M42.9598 110.31C43.6225 110.31 44.1598 109.773 44.1598 109.11C44.1598 108.447 43.6225 107.91 42.9598 107.91C42.297 107.91 41.7598 108.447 41.7598 109.11C41.7598 109.773 42.297 110.31 42.9598 110.31Z" fill="white"/>
<path d="M56.7395 110.31C57.4023 110.31 57.9395 109.773 57.9395 109.11C57.9395 108.447 57.4023 107.91 56.7395 107.91C56.0768 107.91 55.5396 108.447 55.5396 109.11C55.5396 109.773 56.0768 110.31 56.7395 110.31Z" fill="white"/>
<path d="M70.5198 110.31C71.1826 110.31 71.7198 109.773 71.7198 109.11C71.7198 108.447 71.1826 107.91 70.5198 107.91C69.8571 107.91 69.3198 108.447 69.3198 109.11C69.3198 109.773 69.8571 110.31 70.5198 110.31Z" fill="white"/>
<path d="M84.3099 110.31C84.9726 110.31 85.5099 109.773 85.5099 109.11C85.5099 108.447 84.9726 107.91 84.3099 107.91C83.6471 107.91 83.1099 108.447 83.1099 109.11C83.1099 109.773 83.6471 110.31 84.3099 110.31Z" fill="white"/>
<path d="M98.0896 110.31C98.7524 110.31 99.2896 109.773 99.2896 109.11C99.2896 108.447 98.7524 107.91 98.0896 107.91C97.4269 107.91 96.8896 108.447 96.8896 109.11C96.8896 109.773 97.4269 110.31 98.0896 110.31Z" fill="white"/>
<path d="M111.87 110.31C112.533 110.31 113.07 109.773 113.07 109.11C113.07 108.447 112.533 107.91 111.87 107.91C111.207 107.91 110.67 108.447 110.67 109.11C110.67 109.773 111.207 110.31 111.87 110.31Z" fill="white"/>
<path d="M125.65 110.31C126.312 110.31 126.85 109.773 126.85 109.11C126.85 108.447 126.312 107.91 125.65 107.91C124.987 107.91 124.45 108.447 124.45 109.11C124.45 109.773 124.987 110.31 125.65 110.31Z" fill="white"/>
<path d="M139.429 110.31C140.092 110.31 140.629 109.773 140.629 109.11C140.629 108.447 140.092 107.91 139.429 107.91C138.767 107.91 138.229 108.447 138.229 109.11C138.229 109.773 138.767 110.31 139.429 110.31Z" fill="white"/>
<path d="M153.21 110.31C153.872 110.31 154.41 109.773 154.41 109.11C154.41 108.447 153.872 107.91 153.21 107.91C152.547 107.91 152.01 108.447 152.01 109.11C152.01 109.773 152.547 110.31 153.21 110.31Z" fill="white"/>
<path d="M168.19 109.11C168.19 109.77 167.65 110.31 166.99 110.31C166.33 110.31 165.79 109.77 165.79 109.11C165.79 108.45 166.33 107.91 166.99 107.91C167.66 107.91 168.19 108.45 168.19 109.11Z" fill="white"/>
<path d="M180.78 110.31C181.442 110.31 181.98 109.773 181.98 109.11C181.98 108.447 181.442 107.91 180.78 107.91C180.117 107.91 179.58 108.447 179.58 109.11C179.58 109.773 180.117 110.31 180.78 110.31Z" fill="white"/>
<path d="M194.56 110.31C195.223 110.31 195.76 109.773 195.76 109.11C195.76 108.447 195.223 107.91 194.56 107.91C193.897 107.91 193.36 108.447 193.36 109.11C193.36 109.773 193.897 110.31 194.56 110.31Z" fill="white"/>
<path d="M1.61992 123.79C2.28266 123.79 2.81993 123.253 2.81993 122.59C2.81993 121.927 2.28266 121.39 1.61992 121.39C0.957177 121.39 0.419922 121.927 0.419922 122.59C0.419922 123.253 0.957177 123.79 1.61992 123.79Z" fill="white"/>
<path d="M15.3997 123.79C16.0624 123.79 16.5997 123.253 16.5997 122.59C16.5997 121.927 16.0624 121.39 15.3997 121.39C14.737 121.39 14.1997 121.927 14.1997 122.59C14.1997 123.253 14.737 123.79 15.3997 123.79Z" fill="white"/>
<path d="M30.3795 122.59C30.3795 123.25 29.8395 123.79 29.1795 123.79C28.5195 123.79 27.9795 123.25 27.9795 122.59C27.9795 121.93 28.5195 121.39 29.1795 121.39C29.8395 121.39 30.3795 121.93 30.3795 122.59Z" fill="white"/>
<path d="M42.9598 123.79C43.6225 123.79 44.1598 123.253 44.1598 122.59C44.1598 121.927 43.6225 121.39 42.9598 121.39C42.297 121.39 41.7598 121.927 41.7598 122.59C41.7598 123.253 42.297 123.79 42.9598 123.79Z" fill="white"/>
<path d="M56.7395 123.79C57.4023 123.79 57.9395 123.253 57.9395 122.59C57.9395 121.927 57.4023 121.39 56.7395 121.39C56.0768 121.39 55.5396 121.927 55.5396 122.59C55.5396 123.253 56.0768 123.79 56.7395 123.79Z" fill="white"/>
<path d="M70.5198 123.79C71.1826 123.79 71.7198 123.253 71.7198 122.59C71.7198 121.927 71.1826 121.39 70.5198 121.39C69.8571 121.39 69.3198 121.927 69.3198 122.59C69.3198 123.253 69.8571 123.79 70.5198 123.79Z" fill="white"/>
<path d="M84.3099 123.79C84.9726 123.79 85.5099 123.253 85.5099 122.59C85.5099 121.927 84.9726 121.39 84.3099 121.39C83.6471 121.39 83.1099 121.927 83.1099 122.59C83.1099 123.253 83.6471 123.79 84.3099 123.79Z" fill="white"/>
<path d="M98.0896 123.79C98.7524 123.79 99.2896 123.253 99.2896 122.59C99.2896 121.927 98.7524 121.39 98.0896 121.39C97.4269 121.39 96.8896 121.927 96.8896 122.59C96.8896 123.253 97.4269 123.79 98.0896 123.79Z" fill="white"/>
<path d="M111.87 123.79C112.533 123.79 113.07 123.253 113.07 122.59C113.07 121.927 112.533 121.39 111.87 121.39C111.207 121.39 110.67 121.927 110.67 122.59C110.67 123.253 111.207 123.79 111.87 123.79Z" fill="white"/>
<path d="M125.65 123.79C126.312 123.79 126.85 123.253 126.85 122.59C126.85 121.927 126.312 121.39 125.65 121.39C124.987 121.39 124.45 121.927 124.45 122.59C124.45 123.253 124.987 123.79 125.65 123.79Z" fill="white"/>
<path d="M139.429 123.79C140.092 123.79 140.629 123.253 140.629 122.59C140.629 121.927 140.092 121.39 139.429 121.39C138.767 121.39 138.229 121.927 138.229 122.59C138.229 123.253 138.767 123.79 139.429 123.79Z" fill="white"/>
<path d="M153.21 123.79C153.872 123.79 154.41 123.253 154.41 122.59C154.41 121.927 153.872 121.39 153.21 121.39C152.547 121.39 152.01 121.927 152.01 122.59C152.01 123.253 152.547 123.79 153.21 123.79Z" fill="white"/>
<path d="M168.19 122.59C168.19 123.25 167.65 123.79 166.99 123.79C166.33 123.79 165.79 123.25 165.79 122.59C165.79 121.93 166.33 121.39 166.99 121.39C167.66 121.39 168.19 121.93 168.19 122.59Z" fill="white"/>
<path d="M180.78 123.79C181.442 123.79 181.98 123.253 181.98 122.59C181.98 121.927 181.442 121.39 180.78 121.39C180.117 121.39 179.58 121.927 179.58 122.59C179.58 123.253 180.117 123.79 180.78 123.79Z" fill="white"/>
<path d="M194.56 123.79C195.223 123.79 195.76 123.253 195.76 122.59C195.76 121.927 195.223 121.39 194.56 121.39C193.897 121.39 193.36 121.927 193.36 122.59C193.36 123.253 193.897 123.79 194.56 123.79Z" fill="white"/>
<path d="M1.61992 137.27C2.28266 137.27 2.81993 136.733 2.81993 136.07C2.81993 135.407 2.28266 134.87 1.61992 134.87C0.957177 134.87 0.419922 135.407 0.419922 136.07C0.419922 136.733 0.957177 137.27 1.61992 137.27Z" fill="white"/>
<path d="M15.3997 137.27C16.0624 137.27 16.5997 136.733 16.5997 136.07C16.5997 135.407 16.0624 134.87 15.3997 134.87C14.737 134.87 14.1997 135.407 14.1997 136.07C14.1997 136.733 14.737 137.27 15.3997 137.27Z" fill="white"/>
<path d="M30.3795 136.07C30.3795 136.73 29.8395 137.27 29.1795 137.27C28.5195 137.27 27.9795 136.73 27.9795 136.07C27.9795 135.41 28.5195 134.87 29.1795 134.87C29.8395 134.87 30.3795 135.41 30.3795 136.07Z" fill="white"/>
<path d="M42.9598 137.27C43.6225 137.27 44.1598 136.733 44.1598 136.07C44.1598 135.407 43.6225 134.87 42.9598 134.87C42.297 134.87 41.7598 135.407 41.7598 136.07C41.7598 136.733 42.297 137.27 42.9598 137.27Z" fill="white"/>
<path d="M56.7395 137.27C57.4023 137.27 57.9395 136.733 57.9395 136.07C57.9395 135.407 57.4023 134.87 56.7395 134.87C56.0768 134.87 55.5396 135.407 55.5396 136.07C55.5396 136.733 56.0768 137.27 56.7395 137.27Z" fill="white"/>
<path d="M70.5198 137.27C71.1826 137.27 71.7198 136.733 71.7198 136.07C71.7198 135.407 71.1826 134.87 70.5198 134.87C69.8571 134.87 69.3198 135.407 69.3198 136.07C69.3198 136.733 69.8571 137.27 70.5198 137.27Z" fill="white"/>
<path d="M84.3099 137.27C84.9726 137.27 85.5099 136.733 85.5099 136.07C85.5099 135.407 84.9726 134.87 84.3099 134.87C83.6471 134.87 83.1099 135.407 83.1099 136.07C83.1099 136.733 83.6471 137.27 84.3099 137.27Z" fill="white"/>
<path d="M98.0896 137.27C98.7524 137.27 99.2896 136.733 99.2896 136.07C99.2896 135.407 98.7524 134.87 98.0896 134.87C97.4269 134.87 96.8896 135.407 96.8896 136.07C96.8896 136.733 97.4269 137.27 98.0896 137.27Z" fill="white"/>
<path d="M111.87 137.27C112.533 137.27 113.07 136.733 113.07 136.07C113.07 135.407 112.533 134.87 111.87 134.87C111.207 134.87 110.67 135.407 110.67 136.07C110.67 136.733 111.207 137.27 111.87 137.27Z" fill="white"/>
<path d="M125.65 137.27C126.312 137.27 126.85 136.733 126.85 136.07C126.85 135.407 126.312 134.87 125.65 134.87C124.987 134.87 124.45 135.407 124.45 136.07C124.45 136.733 124.987 137.27 125.65 137.27Z" fill="white"/>
<path d="M139.429 137.27C140.092 137.27 140.629 136.733 140.629 136.07C140.629 135.407 140.092 134.87 139.429 134.87C138.767 134.87 138.229 135.407 138.229 136.07C138.229 136.733 138.767 137.27 139.429 137.27Z" fill="white"/>
<path d="M153.21 137.27C153.872 137.27 154.41 136.733 154.41 136.07C154.41 135.407 153.872 134.87 153.21 134.87C152.547 134.87 152.01 135.407 152.01 136.07C152.01 136.733 152.547 137.27 153.21 137.27Z" fill="white"/>
<path d="M168.19 136.07C168.19 136.73 167.65 137.27 166.99 137.27C166.33 137.27 165.79 136.73 165.79 136.07C165.79 135.41 166.33 134.87 166.99 134.87C167.66 134.87 168.19 135.41 168.19 136.07Z" fill="white"/>
<path d="M180.78 137.27C181.442 137.27 181.98 136.733 181.98 136.07C181.98 135.407 181.442 134.87 180.78 134.87C180.117 134.87 179.58 135.407 179.58 136.07C179.58 136.733 180.117 137.27 180.78 137.27Z" fill="white"/>
<path d="M194.56 137.27C195.223 137.27 195.76 136.733 195.76 136.07C195.76 135.407 195.223 134.87 194.56 134.87C193.897 134.87 193.36 135.407 193.36 136.07C193.36 136.733 193.897 137.27 194.56 137.27Z" fill="white"/>
<path d="M1.61992 150.75C2.28266 150.75 2.81993 150.213 2.81993 149.55C2.81993 148.887 2.28266 148.35 1.61992 148.35C0.957177 148.35 0.419922 148.887 0.419922 149.55C0.419922 150.213 0.957177 150.75 1.61992 150.75Z" fill="white"/>
<path d="M15.3997 150.75C16.0624 150.75 16.5997 150.213 16.5997 149.55C16.5997 148.887 16.0624 148.35 15.3997 148.35C14.737 148.35 14.1997 148.887 14.1997 149.55C14.1997 150.213 14.737 150.75 15.3997 150.75Z" fill="white"/>
<path d="M30.3795 149.55C30.3795 150.21 29.8395 150.75 29.1795 150.75C28.5195 150.75 27.9795 150.21 27.9795 149.55C27.9795 148.89 28.5195 148.35 29.1795 148.35C29.8395 148.36 30.3795 148.89 30.3795 149.55Z" fill="white"/>
<path d="M42.9598 150.75C43.6225 150.75 44.1598 150.213 44.1598 149.55C44.1598 148.887 43.6225 148.35 42.9598 148.35C42.297 148.35 41.7598 148.887 41.7598 149.55C41.7598 150.213 42.297 150.75 42.9598 150.75Z" fill="white"/>
<path d="M56.7395 150.75C57.4023 150.75 57.9395 150.213 57.9395 149.55C57.9395 148.887 57.4023 148.35 56.7395 148.35C56.0768 148.35 55.5396 148.887 55.5396 149.55C55.5396 150.213 56.0768 150.75 56.7395 150.75Z" fill="white"/>
<path d="M70.5198 150.75C71.1826 150.75 71.7198 150.213 71.7198 149.55C71.7198 148.887 71.1826 148.35 70.5198 148.35C69.8571 148.35 69.3198 148.887 69.3198 149.55C69.3198 150.213 69.8571 150.75 70.5198 150.75Z" fill="white"/>
<path d="M84.3099 150.75C84.9726 150.75 85.5099 150.213 85.5099 149.55C85.5099 148.887 84.9726 148.35 84.3099 148.35C83.6471 148.35 83.1099 148.887 83.1099 149.55C83.1099 150.213 83.6471 150.75 84.3099 150.75Z" fill="white"/>
<path d="M98.0896 150.75C98.7524 150.75 99.2896 150.213 99.2896 149.55C99.2896 148.887 98.7524 148.35 98.0896 148.35C97.4269 148.35 96.8896 148.887 96.8896 149.55C96.8896 150.213 97.4269 150.75 98.0896 150.75Z" fill="white"/>
<path d="M111.87 150.75C112.533 150.75 113.07 150.213 113.07 149.55C113.07 148.887 112.533 148.35 111.87 148.35C111.207 148.35 110.67 148.887 110.67 149.55C110.67 150.213 111.207 150.75 111.87 150.75Z" fill="white"/>
<path d="M125.65 150.75C126.312 150.75 126.85 150.213 126.85 149.55C126.85 148.887 126.312 148.35 125.65 148.35C124.987 148.35 124.45 148.887 124.45 149.55C124.45 150.213 124.987 150.75 125.65 150.75Z" fill="white"/>
<path d="M139.429 150.75C140.092 150.75 140.629 150.213 140.629 149.55C140.629 148.887 140.092 148.35 139.429 148.35C138.767 148.35 138.229 148.887 138.229 149.55C138.229 150.213 138.767 150.75 139.429 150.75Z" fill="white"/>
<path d="M153.21 150.75C153.872 150.75 154.41 150.213 154.41 149.55C154.41 148.887 153.872 148.35 153.21 148.35C152.547 148.35 152.01 148.887 152.01 149.55C152.01 150.213 152.547 150.75 153.21 150.75Z" fill="white"/>
<path d="M168.19 149.55C168.19 150.21 167.65 150.75 166.99 150.75C166.33 150.75 165.79 150.21 165.79 149.55C165.79 148.89 166.33 148.35 166.99 148.35C167.66 148.36 168.19 148.89 168.19 149.55Z" fill="white"/>
<path d="M180.78 150.75C181.442 150.75 181.98 150.213 181.98 149.55C181.98 148.887 181.442 148.35 180.78 148.35C180.117 148.35 179.58 148.887 179.58 149.55C179.58 150.213 180.117 150.75 180.78 150.75Z" fill="white"/>
<path d="M194.56 150.75C195.223 150.75 195.76 150.213 195.76 149.55C195.76 148.887 195.223 148.35 194.56 148.35C193.897 148.35 193.36 148.887 193.36 149.55C193.36 150.213 193.897 150.75 194.56 150.75Z" fill="white"/>
<path d="M1.61992 164.24C2.28266 164.24 2.81993 163.703 2.81993 163.04C2.81993 162.377 2.28266 161.84 1.61992 161.84C0.957177 161.84 0.419922 162.377 0.419922 163.04C0.419922 163.703 0.957177 164.24 1.61992 164.24Z" fill="white"/>
<path d="M15.3997 164.24C16.0624 164.24 16.5997 163.703 16.5997 163.04C16.5997 162.377 16.0624 161.84 15.3997 161.84C14.737 161.84 14.1997 162.377 14.1997 163.04C14.1997 163.703 14.737 164.24 15.3997 164.24Z" fill="white"/>
<path d="M30.3795 163.04C30.3795 163.7 29.8395 164.24 29.1795 164.24C28.5195 164.24 27.9795 163.7 27.9795 163.04C27.9795 162.38 28.5195 161.84 29.1795 161.84C29.8395 161.84 30.3795 162.37 30.3795 163.04Z" fill="white"/>
<path d="M42.9598 164.24C43.6225 164.24 44.1598 163.703 44.1598 163.04C44.1598 162.377 43.6225 161.84 42.9598 161.84C42.297 161.84 41.7598 162.377 41.7598 163.04C41.7598 163.703 42.297 164.24 42.9598 164.24Z" fill="white"/>
<path d="M56.7395 164.24C57.4023 164.24 57.9395 163.703 57.9395 163.04C57.9395 162.377 57.4023 161.84 56.7395 161.84C56.0768 161.84 55.5396 162.377 55.5396 163.04C55.5396 163.703 56.0768 164.24 56.7395 164.24Z" fill="white"/>
<path d="M70.5198 164.24C71.1826 164.24 71.7198 163.703 71.7198 163.04C71.7198 162.377 71.1826 161.84 70.5198 161.84C69.8571 161.84 69.3198 162.377 69.3198 163.04C69.3198 163.703 69.8571 164.24 70.5198 164.24Z" fill="white"/>
<path d="M84.3099 164.24C84.9726 164.24 85.5099 163.703 85.5099 163.04C85.5099 162.377 84.9726 161.84 84.3099 161.84C83.6471 161.84 83.1099 162.377 83.1099 163.04C83.1099 163.703 83.6471 164.24 84.3099 164.24Z" fill="white"/>
<path d="M98.0896 164.24C98.7524 164.24 99.2896 163.703 99.2896 163.04C99.2896 162.377 98.7524 161.84 98.0896 161.84C97.4269 161.84 96.8896 162.377 96.8896 163.04C96.8896 163.703 97.4269 164.24 98.0896 164.24Z" fill="white"/>
<path d="M111.87 164.24C112.533 164.24 113.07 163.703 113.07 163.04C113.07 162.377 112.533 161.84 111.87 161.84C111.207 161.84 110.67 162.377 110.67 163.04C110.67 163.703 111.207 164.24 111.87 164.24Z" fill="white"/>
<path d="M125.65 164.24C126.312 164.24 126.85 163.703 126.85 163.04C126.85 162.377 126.312 161.84 125.65 161.84C124.987 161.84 124.45 162.377 124.45 163.04C124.45 163.703 124.987 164.24 125.65 164.24Z" fill="white"/>
<path d="M139.429 164.24C140.092 164.24 140.629 163.703 140.629 163.04C140.629 162.377 140.092 161.84 139.429 161.84C138.767 161.84 138.229 162.377 138.229 163.04C138.229 163.703 138.767 164.24 139.429 164.24Z" fill="white"/>
<path d="M153.21 164.24C153.872 164.24 154.41 163.703 154.41 163.04C154.41 162.377 153.872 161.84 153.21 161.84C152.547 161.84 152.01 162.377 152.01 163.04C152.01 163.703 152.547 164.24 153.21 164.24Z" fill="white"/>
<path d="M168.19 163.04C168.19 163.7 167.65 164.24 166.99 164.24C166.33 164.24 165.79 163.7 165.79 163.04C165.79 162.38 166.33 161.84 166.99 161.84C167.66 161.84 168.19 162.37 168.19 163.04Z" fill="white"/>
<path d="M180.78 164.24C181.442 164.24 181.98 163.703 181.98 163.04C181.98 162.377 181.442 161.84 180.78 161.84C180.117 161.84 179.58 162.377 179.58 163.04C179.58 163.703 180.117 164.24 180.78 164.24Z" fill="white"/>
<path d="M194.56 164.24C195.223 164.24 195.76 163.703 195.76 163.04C195.76 162.377 195.223 161.84 194.56 161.84C193.897 161.84 193.36 162.377 193.36 163.04C193.36 163.703 193.897 164.24 194.56 164.24Z" fill="white"/>
<path d="M1.61992 177.72C2.28266 177.72 2.81993 177.183 2.81993 176.52C2.81993 175.857 2.28266 175.32 1.61992 175.32C0.957177 175.32 0.419922 175.857 0.419922 176.52C0.419922 177.183 0.957177 177.72 1.61992 177.72Z" fill="white"/>
<path d="M15.3997 177.72C16.0624 177.72 16.5997 177.183 16.5997 176.52C16.5997 175.857 16.0624 175.32 15.3997 175.32C14.737 175.32 14.1997 175.857 14.1997 176.52C14.1997 177.183 14.737 177.72 15.3997 177.72Z" fill="white"/>
<path d="M30.3795 176.52C30.3795 177.18 29.8395 177.72 29.1795 177.72C28.5195 177.72 27.9795 177.18 27.9795 176.52C27.9795 175.86 28.5195 175.32 29.1795 175.32C29.8395 175.32 30.3795 175.86 30.3795 176.52Z" fill="white"/>
<path d="M42.9598 177.72C43.6225 177.72 44.1598 177.183 44.1598 176.52C44.1598 175.857 43.6225 175.32 42.9598 175.32C42.297 175.32 41.7598 175.857 41.7598 176.52C41.7598 177.183 42.297 177.72 42.9598 177.72Z" fill="white"/>
<path d="M56.7395 177.72C57.4023 177.72 57.9395 177.183 57.9395 176.52C57.9395 175.857 57.4023 175.32 56.7395 175.32C56.0768 175.32 55.5396 175.857 55.5396 176.52C55.5396 177.183 56.0768 177.72 56.7395 177.72Z" fill="white"/>
<path d="M70.5198 177.72C71.1826 177.72 71.7198 177.183 71.7198 176.52C71.7198 175.857 71.1826 175.32 70.5198 175.32C69.8571 175.32 69.3198 175.857 69.3198 176.52C69.3198 177.183 69.8571 177.72 70.5198 177.72Z" fill="white"/>
<path d="M84.3099 177.72C84.9726 177.72 85.5099 177.183 85.5099 176.52C85.5099 175.857 84.9726 175.32 84.3099 175.32C83.6471 175.32 83.1099 175.857 83.1099 176.52C83.1099 177.183 83.6471 177.72 84.3099 177.72Z" fill="white"/>
<path d="M98.0896 177.72C98.7524 177.72 99.2896 177.183 99.2896 176.52C99.2896 175.857 98.7524 175.32 98.0896 175.32C97.4269 175.32 96.8896 175.857 96.8896 176.52C96.8896 177.183 97.4269 177.72 98.0896 177.72Z" fill="white"/>
<path d="M111.87 177.72C112.533 177.72 113.07 177.183 113.07 176.52C113.07 175.857 112.533 175.32 111.87 175.32C111.207 175.32 110.67 175.857 110.67 176.52C110.67 177.183 111.207 177.72 111.87 177.72Z" fill="white"/>
<path d="M125.65 177.72C126.312 177.72 126.85 177.183 126.85 176.52C126.85 175.857 126.312 175.32 125.65 175.32C124.987 175.32 124.45 175.857 124.45 176.52C124.45 177.183 124.987 177.72 125.65 177.72Z" fill="white"/>
<path d="M139.429 177.72C140.092 177.72 140.629 177.183 140.629 176.52C140.629 175.857 140.092 175.32 139.429 175.32C138.767 175.32 138.229 175.857 138.229 176.52C138.229 177.183 138.767 177.72 139.429 177.72Z" fill="white"/>
<path d="M153.21 177.72C153.872 177.72 154.41 177.183 154.41 176.52C154.41 175.857 153.872 175.32 153.21 175.32C152.547 175.32 152.01 175.857 152.01 176.52C152.01 177.183 152.547 177.72 153.21 177.72Z" fill="white"/>
<path d="M168.19 176.52C168.19 177.18 167.65 177.72 166.99 177.72C166.33 177.72 165.79 177.18 165.79 176.52C165.79 175.86 166.33 175.32 166.99 175.32C167.66 175.32 168.19 175.86 168.19 176.52Z" fill="white"/>
<path d="M180.78 177.72C181.442 177.72 181.98 177.183 181.98 176.52C181.98 175.857 181.442 175.32 180.78 175.32C180.117 175.32 179.58 175.857 179.58 176.52C179.58 177.183 180.117 177.72 180.78 177.72Z" fill="white"/>
<path d="M194.56 177.72C195.223 177.72 195.76 177.183 195.76 176.52C195.76 175.857 195.223 175.32 194.56 175.32C193.897 175.32 193.36 175.857 193.36 176.52C193.36 177.183 193.897 177.72 194.56 177.72Z" fill="white"/>
<path d="M1.61992 191.2C2.28266 191.2 2.81993 190.663 2.81993 190C2.81993 189.337 2.28266 188.8 1.61992 188.8C0.957177 188.8 0.419922 189.337 0.419922 190C0.419922 190.663 0.957177 191.2 1.61992 191.2Z" fill="white"/>
<path d="M15.3997 191.2C16.0624 191.2 16.5997 190.663 16.5997 190C16.5997 189.337 16.0624 188.8 15.3997 188.8C14.737 188.8 14.1997 189.337 14.1997 190C14.1997 190.663 14.737 191.2 15.3997 191.2Z" fill="white"/>
<path d="M30.3795 190C30.3795 190.66 29.8395 191.2 29.1795 191.2C28.5195 191.2 27.9795 190.66 27.9795 190C27.9795 189.34 28.5195 188.8 29.1795 188.8C29.8395 188.8 30.3795 189.34 30.3795 190Z" fill="white"/>
<path d="M42.9598 191.2C43.6225 191.2 44.1598 190.663 44.1598 190C44.1598 189.337 43.6225 188.8 42.9598 188.8C42.297 188.8 41.7598 189.337 41.7598 190C41.7598 190.663 42.297 191.2 42.9598 191.2Z" fill="white"/>
<path d="M56.7395 191.2C57.4023 191.2 57.9395 190.663 57.9395 190C57.9395 189.337 57.4023 188.8 56.7395 188.8C56.0768 188.8 55.5396 189.337 55.5396 190C55.5396 190.663 56.0768 191.2 56.7395 191.2Z" fill="white"/>
<path d="M70.5198 191.2C71.1826 191.2 71.7198 190.663 71.7198 190C71.7198 189.337 71.1826 188.8 70.5198 188.8C69.8571 188.8 69.3198 189.337 69.3198 190C69.3198 190.663 69.8571 191.2 70.5198 191.2Z" fill="white"/>
<path d="M84.3099 191.2C84.9726 191.2 85.5099 190.663 85.5099 190C85.5099 189.337 84.9726 188.8 84.3099 188.8C83.6471 188.8 83.1099 189.337 83.1099 190C83.1099 190.663 83.6471 191.2 84.3099 191.2Z" fill="white"/>
<path d="M98.0896 191.2C98.7524 191.2 99.2896 190.663 99.2896 190C99.2896 189.337 98.7524 188.8 98.0896 188.8C97.4269 188.8 96.8896 189.337 96.8896 190C96.8896 190.663 97.4269 191.2 98.0896 191.2Z" fill="white"/>
<path d="M111.87 191.2C112.533 191.2 113.07 190.663 113.07 190C113.07 189.337 112.533 188.8 111.87 188.8C111.207 188.8 110.67 189.337 110.67 190C110.67 190.663 111.207 191.2 111.87 191.2Z" fill="white"/>
<path d="M125.65 191.2C126.312 191.2 126.85 190.663 126.85 190C126.85 189.337 126.312 188.8 125.65 188.8C124.987 188.8 124.45 189.337 124.45 190C124.45 190.663 124.987 191.2 125.65 191.2Z" fill="white"/>
<path d="M139.429 191.2C140.092 191.2 140.629 190.663 140.629 190C140.629 189.337 140.092 188.8 139.429 188.8C138.767 188.8 138.229 189.337 138.229 190C138.229 190.663 138.767 191.2 139.429 191.2Z" fill="white"/>
<path d="M153.21 191.2C153.872 191.2 154.41 190.663 154.41 190C154.41 189.337 153.872 188.8 153.21 188.8C152.547 188.8 152.01 189.337 152.01 190C152.01 190.663 152.547 191.2 153.21 191.2Z" fill="white"/>
<path d="M168.19 190C168.19 190.66 167.65 191.2 166.99 191.2C166.33 191.2 165.79 190.66 165.79 190C165.79 189.34 166.33 188.8 166.99 188.8C167.66 188.8 168.19 189.34 168.19 190Z" fill="white"/>
<path d="M180.78 191.2C181.442 191.2 181.98 190.663 181.98 190C181.98 189.337 181.442 188.8 180.78 188.8C180.117 188.8 179.58 189.337 179.58 190C179.58 190.663 180.117 191.2 180.78 191.2Z" fill="white"/>
<path d="M194.56 191.2C195.223 191.2 195.76 190.663 195.76 190C195.76 189.337 195.223 188.8 194.56 188.8C193.897 188.8 193.36 189.337 193.36 190C193.36 190.663 193.897 191.2 194.56 191.2Z" fill="white"/>
<path d="M1.61992 204.68C2.28266 204.68 2.81993 204.143 2.81993 203.48C2.81993 202.817 2.28266 202.28 1.61992 202.28C0.957177 202.28 0.419922 202.817 0.419922 203.48C0.419922 204.143 0.957177 204.68 1.61992 204.68Z" fill="white"/>
<path d="M15.3997 204.68C16.0624 204.68 16.5997 204.143 16.5997 203.48C16.5997 202.817 16.0624 202.28 15.3997 202.28C14.737 202.28 14.1997 202.817 14.1997 203.48C14.1997 204.143 14.737 204.68 15.3997 204.68Z" fill="white"/>
<path d="M30.3795 203.48C30.3795 204.14 29.8395 204.68 29.1795 204.68C28.5195 204.68 27.9795 204.14 27.9795 203.48C27.9795 202.82 28.5195 202.28 29.1795 202.28C29.8395 202.28 30.3795 202.82 30.3795 203.48Z" fill="white"/>
<path d="M42.9598 204.68C43.6225 204.68 44.1598 204.143 44.1598 203.48C44.1598 202.817 43.6225 202.28 42.9598 202.28C42.297 202.28 41.7598 202.817 41.7598 203.48C41.7598 204.143 42.297 204.68 42.9598 204.68Z" fill="white"/>
<path d="M56.7395 204.68C57.4023 204.68 57.9395 204.143 57.9395 203.48C57.9395 202.817 57.4023 202.28 56.7395 202.28C56.0768 202.28 55.5396 202.817 55.5396 203.48C55.5396 204.143 56.0768 204.68 56.7395 204.68Z" fill="white"/>
<path d="M70.5198 204.68C71.1826 204.68 71.7198 204.143 71.7198 203.48C71.7198 202.817 71.1826 202.28 70.5198 202.28C69.8571 202.28 69.3198 202.817 69.3198 203.48C69.3198 204.143 69.8571 204.68 70.5198 204.68Z" fill="white"/>
<path d="M84.3099 204.68C84.9726 204.68 85.5099 204.143 85.5099 203.48C85.5099 202.817 84.9726 202.28 84.3099 202.28C83.6471 202.28 83.1099 202.817 83.1099 203.48C83.1099 204.143 83.6471 204.68 84.3099 204.68Z" fill="white"/>
<path d="M98.0896 204.68C98.7524 204.68 99.2896 204.143 99.2896 203.48C99.2896 202.817 98.7524 202.28 98.0896 202.28C97.4269 202.28 96.8896 202.817 96.8896 203.48C96.8896 204.143 97.4269 204.68 98.0896 204.68Z" fill="white"/>
<path d="M111.87 204.68C112.533 204.68 113.07 204.143 113.07 203.48C113.07 202.817 112.533 202.28 111.87 202.28C111.207 202.28 110.67 202.817 110.67 203.48C110.67 204.143 111.207 204.68 111.87 204.68Z" fill="white"/>
<path d="M125.65 204.68C126.312 204.68 126.85 204.143 126.85 203.48C126.85 202.817 126.312 202.28 125.65 202.28C124.987 202.28 124.45 202.817 124.45 203.48C124.45 204.143 124.987 204.68 125.65 204.68Z" fill="white"/>
<path d="M139.429 204.68C140.092 204.68 140.629 204.143 140.629 203.48C140.629 202.817 140.092 202.28 139.429 202.28C138.767 202.28 138.229 202.817 138.229 203.48C138.229 204.143 138.767 204.68 139.429 204.68Z" fill="white"/>
<path d="M153.21 204.68C153.872 204.68 154.41 204.143 154.41 203.48C154.41 202.817 153.872 202.28 153.21 202.28C152.547 202.28 152.01 202.817 152.01 203.48C152.01 204.143 152.547 204.68 153.21 204.68Z" fill="white"/>
<path d="M168.19 203.48C168.19 204.14 167.65 204.68 166.99 204.68C166.33 204.68 165.79 204.14 165.79 203.48C165.79 202.82 166.33 202.28 166.99 202.28C167.66 202.28 168.19 202.82 168.19 203.48Z" fill="white"/>
<path d="M180.78 204.68C181.442 204.68 181.98 204.143 181.98 203.48C181.98 202.817 181.442 202.28 180.78 202.28C180.117 202.28 179.58 202.817 179.58 203.48C179.58 204.143 180.117 204.68 180.78 204.68Z" fill="white"/>
<path d="M194.56 204.68C195.223 204.68 195.76 204.143 195.76 203.48C195.76 202.817 195.223 202.28 194.56 202.28C193.897 202.28 193.36 202.817 193.36 203.48C193.36 204.143 193.897 204.68 194.56 204.68Z" fill="white"/>
<path d="M1.61992 218.16C2.28266 218.16 2.81993 217.623 2.81993 216.96C2.81993 216.297 2.28266 215.76 1.61992 215.76C0.957177 215.76 0.419922 216.297 0.419922 216.96C0.419922 217.623 0.957177 218.16 1.61992 218.16Z" fill="white"/>
<path d="M15.3997 218.16C16.0624 218.16 16.5997 217.623 16.5997 216.96C16.5997 216.297 16.0624 215.76 15.3997 215.76C14.737 215.76 14.1997 216.297 14.1997 216.96C14.1997 217.623 14.737 218.16 15.3997 218.16Z" fill="white"/>
<path d="M30.3795 216.96C30.3795 217.62 29.8395 218.16 29.1795 218.16C28.5195 218.16 27.9795 217.62 27.9795 216.96C27.9795 216.3 28.5195 215.76 29.1795 215.76C29.8395 215.77 30.3795 216.3 30.3795 216.96Z" fill="white"/>
<path d="M42.9598 218.16C43.6225 218.16 44.1598 217.623 44.1598 216.96C44.1598 216.297 43.6225 215.76 42.9598 215.76C42.297 215.76 41.7598 216.297 41.7598 216.96C41.7598 217.623 42.297 218.16 42.9598 218.16Z" fill="white"/>
<path d="M56.7395 218.16C57.4023 218.16 57.9395 217.623 57.9395 216.96C57.9395 216.297 57.4023 215.76 56.7395 215.76C56.0768 215.76 55.5396 216.297 55.5396 216.96C55.5396 217.623 56.0768 218.16 56.7395 218.16Z" fill="white"/>
<path d="M70.5198 218.16C71.1826 218.16 71.7198 217.623 71.7198 216.96C71.7198 216.297 71.1826 215.76 70.5198 215.76C69.8571 215.76 69.3198 216.297 69.3198 216.96C69.3198 217.623 69.8571 218.16 70.5198 218.16Z" fill="white"/>
<path d="M84.3099 218.16C84.9726 218.16 85.5099 217.623 85.5099 216.96C85.5099 216.297 84.9726 215.76 84.3099 215.76C83.6471 215.76 83.1099 216.297 83.1099 216.96C83.1099 217.623 83.6471 218.16 84.3099 218.16Z" fill="white"/>
<path d="M98.0896 218.16C98.7524 218.16 99.2896 217.623 99.2896 216.96C99.2896 216.297 98.7524 215.76 98.0896 215.76C97.4269 215.76 96.8896 216.297 96.8896 216.96C96.8896 217.623 97.4269 218.16 98.0896 218.16Z" fill="white"/>
<path d="M111.87 218.16C112.533 218.16 113.07 217.623 113.07 216.96C113.07 216.297 112.533 215.76 111.87 215.76C111.207 215.76 110.67 216.297 110.67 216.96C110.67 217.623 111.207 218.16 111.87 218.16Z" fill="white"/>
<path d="M125.65 218.16C126.312 218.16 126.85 217.623 126.85 216.96C126.85 216.297 126.312 215.76 125.65 215.76C124.987 215.76 124.45 216.297 124.45 216.96C124.45 217.623 124.987 218.16 125.65 218.16Z" fill="white"/>
<path d="M139.429 218.16C140.092 218.16 140.629 217.623 140.629 216.96C140.629 216.297 140.092 215.76 139.429 215.76C138.767 215.76 138.229 216.297 138.229 216.96C138.229 217.623 138.767 218.16 139.429 218.16Z" fill="white"/>
<path d="M153.21 218.16C153.872 218.16 154.41 217.623 154.41 216.96C154.41 216.297 153.872 215.76 153.21 215.76C152.547 215.76 152.01 216.297 152.01 216.96C152.01 217.623 152.547 218.16 153.21 218.16Z" fill="white"/>
<path d="M168.19 216.96C168.19 217.62 167.65 218.16 166.99 218.16C166.33 218.16 165.79 217.62 165.79 216.96C165.79 216.3 166.33 215.76 166.99 215.76C167.66 215.77 168.19 216.3 168.19 216.96Z" fill="white"/>
<path d="M180.78 218.16C181.442 218.16 181.98 217.623 181.98 216.96C181.98 216.297 181.442 215.76 180.78 215.76C180.117 215.76 179.58 216.297 179.58 216.96C179.58 217.623 180.117 218.16 180.78 218.16Z" fill="white"/>
<path d="M194.56 218.16C195.223 218.16 195.76 217.623 195.76 216.96C195.76 216.297 195.223 215.76 194.56 215.76C193.897 215.76 193.36 216.297 193.36 216.96C193.36 217.623 193.897 218.16 194.56 218.16Z" fill="white"/>
</svg>
